<svg width="87" height="29" viewBox="0 0 87 29" fill="none" xmlns="http://www.w3.org/2000/svg">
<path d="M0 21.6L6.6 0H12.69L19.29 21.6H15.09L9.21 2.55H9.99L4.2 21.6H0ZM3.96 17.1V13.29H15.36V17.1H3.96Z" fill="#1B1E2A"/>
<path d="M28.5485 22.05C27.0585 22.05 25.7535 21.675 24.6335 20.925C23.5135 20.175 22.6385 19.155 22.0085 17.865C21.3885 16.575 21.0785 15.12 21.0785 13.5C21.0785 11.85 21.3935 10.385 22.0235 9.105C22.6635 7.815 23.5585 6.8 24.7085 6.06C25.8585 5.32 27.2085 4.95 28.7585 4.95C30.2985 4.95 31.5935 5.325 32.6435 6.075C33.6935 6.825 34.4885 7.845 35.0285 9.135C35.5685 10.425 35.8385 11.88 35.8385 13.5C35.8385 15.12 35.5635 16.575 35.0135 17.865C34.4735 19.155 33.6635 20.175 32.5835 20.925C31.5035 21.675 30.1585 22.05 28.5485 22.05ZM29.2085 18.42C30.1185 18.42 30.8435 18.215 31.3835 17.805C31.9335 17.395 32.3285 16.82 32.5685 16.08C32.8085 15.34 32.9285 14.48 32.9285 13.5C32.9285 12.52 32.8085 11.66 32.5685 10.92C32.3285 10.18 31.9435 9.605 31.4135 9.195C30.8935 8.785 30.2085 8.58 29.3585 8.58C28.4485 8.58 27.6985 8.805 27.1085 9.255C26.5285 9.695 26.0985 10.29 25.8185 11.04C25.5385 11.78 25.3985 12.6 25.3985 13.5C25.3985 14.41 25.5335 15.24 25.8035 15.99C26.0735 16.73 26.4885 17.32 27.0485 17.76C27.6085 18.2 28.3285 18.42 29.2085 18.42ZM32.9285 21.6V10.5H32.4185V0H36.5285V21.6H32.9285Z" fill="#1B1E2A"/>
<path d="M48.2585 22.05C46.5985 22.05 45.1335 21.695 43.8635 20.985C42.6035 20.265 41.6135 19.28 40.8935 18.03C40.1835 16.77 39.8285 15.33 39.8285 13.71C39.8285 11.94 40.1785 10.4 40.8785 9.09C41.5785 7.78 42.5435 6.765 43.7735 6.045C45.0035 5.315 46.4185 4.95 48.0185 4.95C49.7185 4.95 51.1635 5.35 52.3535 6.15C53.5435 6.95 54.4235 8.075 54.9935 9.525C55.5635 10.975 55.7635 12.68 55.5935 14.64H51.5585V13.14C51.5585 11.49 51.2935 10.305 50.7635 9.585C50.2435 8.855 49.3885 8.49 48.1985 8.49C46.8085 8.49 45.7835 8.915 45.1235 9.765C44.4735 10.605 44.1485 11.85 44.1485 13.5C44.1485 15.01 44.4735 16.18 45.1235 17.01C45.7835 17.83 46.7485 18.24 48.0185 18.24C48.8185 18.24 49.5035 18.065 50.0735 17.715C50.6435 17.365 51.0785 16.86 51.3785 16.2L55.4585 17.37C54.8485 18.85 53.8835 20 52.5635 20.82C51.2535 21.64 49.8185 22.05 48.2585 22.05ZM42.8885 14.64V11.61H53.6285V14.64H42.8885Z" fill="#1B1E2A"/>
<path d="M66.491 22.05C64.881 22.05 63.536 21.675 62.456 20.925C61.376 20.175 60.561 19.155 60.011 17.865C59.471 16.575 59.201 15.12 59.201 13.5C59.201 11.88 59.471 10.425 60.011 9.135C60.551 7.845 61.346 6.825 62.396 6.075C63.446 5.325 64.741 4.95 66.281 4.95C67.831 4.95 69.181 5.32 70.331 6.06C71.481 6.8 72.371 7.815 73.001 9.105C73.641 10.385 73.961 11.85 73.961 13.5C73.961 15.12 73.646 16.575 73.016 17.865C72.396 19.155 71.526 20.175 70.406 20.925C69.286 21.675 67.981 22.05 66.491 22.05ZM58.511 28.8V5.4H62.111V16.5H62.621V28.8H58.511ZM65.831 18.42C66.711 18.42 67.431 18.2 67.991 17.76C68.551 17.32 68.966 16.73 69.236 15.99C69.506 15.24 69.641 14.41 69.641 13.5C69.641 12.6 69.501 11.78 69.221 11.04C68.941 10.29 68.506 9.695 67.916 9.255C67.336 8.805 66.591 8.58 65.681 8.58C64.831 8.58 64.141 8.785 63.611 9.195C63.091 9.605 62.711 10.18 62.471 10.92C62.231 11.66 62.111 12.52 62.111 13.5C62.111 14.48 62.231 15.34 62.471 16.08C62.711 16.82 63.101 17.395 63.641 17.805C64.191 18.215 64.921 18.42 65.831 18.42Z" fill="#1B1E2A"/>
<path d="M86.9817 21.6C85.8617 21.81 84.7617 21.9 83.6817 21.87C82.6117 21.85 81.6517 21.665 80.8017 21.315C79.9617 20.955 79.3217 20.38 78.8817 19.59C78.4817 18.85 78.2717 18.1 78.2517 17.34C78.2317 16.57 78.2217 15.7 78.2217 14.73V0.899999H82.3017V14.49C82.3017 15.12 82.3067 15.69 82.3167 16.2C82.3367 16.7 82.4417 17.1 82.6317 17.4C82.9917 17.97 83.5667 18.28 84.3567 18.33C85.1467 18.38 86.0217 18.34 86.9817 18.21V21.6ZM75.4617 8.55V5.4H86.9817V8.55H75.4617Z" fill="#1B1E2A"/>
</svg>
