<svg width="20" height="11" viewBox="0 0 20 11" fill="none" xmlns="http://www.w3.org/2000/svg">
<path d="M18.6118 0.230605L9.99912 8.42821L1.38645 0.230605C1.23257 0.0838448 1.026 0.00168247 0.810891 0.00168247C0.595786 0.00168247 0.389214 0.0838448 0.235334 0.230605C0.160826 0.301887 0.101633 0.386968 0.0612238 0.480867C0.0208142 0.574767 0 0.675596 0 0.777448C0 0.8793 0.0208142 0.980129 0.0612238 1.07403C0.101633 1.16793 0.160826 1.25301 0.235334 1.32429L9.39771 10.0469C9.55862 10.2 9.77442 10.2857 9.99912 10.2857C10.2238 10.2857 10.4396 10.2 10.6005 10.0469L19.7629 1.32597C19.8379 1.25464 19.8976 1.16935 19.9383 1.07514C19.979 0.980927 20 0.879706 20 0.777448C20 0.67519 19.979 0.573968 19.9383 0.479758C19.8976 0.385547 19.8379 0.300257 19.7629 0.228922C19.609 0.0821615 19.4025 0 19.1873 0C18.9722 0 18.7657 0.0821615 18.6118 0.228922V0.230605Z" fill="#1B1E2A"/>
</svg>
